<svg xmlns="http://www.w3.org/2000/svg" width="22.062" height="29.969" viewBox="0 0 22.062 29.969">
  <defs>
    <style>
      .cls-1 {
        fill: #1275b9;
        fill-rule: evenodd;
      }
    </style>
  </defs>
  <path id="Tablet_copy" data-name="Tablet copy" class="cls-1" d="M20.266,29.975H7.735a4.873,4.873,0,0,1-4.772-4.958V4.944A4.873,4.873,0,0,1,7.735-.014H20.266a4.873,4.873,0,0,1,4.772,4.958V25.017A4.874,4.874,0,0,1,20.266,29.975ZM7.735,2A2.9,2.9,0,0,0,4.9,4.944V25.017a2.9,2.9,0,0,0,2.837,2.948H20.266A2.9,2.9,0,0,0,23.1,25.017V4.944A2.9,2.9,0,0,0,20.266,2H7.735ZM14,26.818a1.006,1.006,0,1,1,.968-1.006A0.988,0.988,0,0,1,14,26.818ZM14.969,5.431H13.034a1.006,1.006,0,0,1,0-2.011h1.935A1.006,1.006,0,0,1,14.969,5.431Z" transform="translate(-2.969)"/>
</svg>
